<?xml version="1.0" encoding="utf-8"?>
<!-- Generator: Adobe Illustrator 18.1.1, SVG Export Plug-In . SVG Version: 6.00 Build 0)  -->
<!DOCTYPE svg PUBLIC "-//W3C//DTD SVG 1.1//EN" "http://www.w3.org/Graphics/SVG/1.1/DTD/svg11.dtd">
<svg version="1.1" id="Layer_1" xmlns="http://www.w3.org/2000/svg" xmlns:xlink="http://www.w3.org/1999/xlink" x="0px" y="0px"
	 width="612px" height="792px" viewBox="0 0 612 792" enable-background="new 0 0 612 792" xml:space="preserve">
<path fill="#254969" d="M581.4,371.1c-5.7,0-24.9,0-30.6,0c-17.2,0-30.6,11.5-30.6,24.9c0,13.4,13.4,24.9,30.6,24.9
	c5.7,0,24.9,0,30.6,0c17.2,0,30.6-11.5,30.6-24.9C612,382.6,598.6,371.1,581.4,371.1z M306,227.7c-93.7,0-168.3,74.6-168.3,168.3
	S212.3,564.3,306,564.3S474.3,489.7,474.3,396S399.7,227.7,306,227.7z M91.8,396c0-13.4-13.4-24.9-30.6-24.9c-5.7,0-24.9,0-30.6,0
	C13.4,371.1,0,382.6,0,396c0,13.4,13.4,24.9,30.6,24.9c5.7,0,24.9,0,30.6,0C78.4,420.9,91.8,409.4,91.8,396z M306,181.8
	c13.4,0,24.9-13.4,24.9-30.6c0-5.7,0-24.9,0-30.6c0-17.2-11.5-30.6-24.9-30.6s-24.9,13.4-24.9,30.6c0,5.7,0,24.9,0,30.6
	C281.1,168.4,292.6,181.8,306,181.8z M306,610.2c-13.4,0-24.9,13.4-24.9,30.6c0,5.7,0,24.9,0,30.6c0,17.2,11.5,30.6,24.9,30.6
	c13.4,0,24.9-13.4,24.9-30.6c0-5.7,0-24.9,0-30.6C330.9,623.6,319.4,610.2,306,610.2z M531.7,204.8c11.5-11.5,13.4-28.7,3.8-38.2
	s-26.8-7.7-38.2,3.8c-3.8,3.8-17.2,17.2-21,21c-11.5,11.5-13.4,28.7-3.8,38.2s26.8,7.7,38.2-3.8
	C512.5,223.9,527.9,208.6,531.7,204.8L531.7,204.8z M101.4,566.2c-1.9,1.9-17.2,17.2-21,21c-11.5,11.5-13.4,28.7-3.8,38.2
	s26.8,7.6,38.3-3.8c3.8-3.8,17.2-17.2,21-21c11.5-11.5,13.4-28.7,3.8-38.2S114.8,552.8,101.4,566.2z M114.8,170.3
	c-11.5-11.5-28.7-13.4-38.2-3.8s-7.7,26.8,3.8,38.2c3.8,3.8,19.1,19.1,21,21c11.5,11.5,28.7,13.4,38.2,3.8s7.7-26.8-3.8-38.2
	C133.9,189.4,118.6,174.2,114.8,170.3z M476.2,600.6c3.8,3.8,17.2,17.2,21,21c11.5,11.5,28.7,13.4,38.2,3.8s7.6-26.8-3.8-38.2
	c-3.8-3.8-17.2-17.2-21-21c-11.5-11.5-28.7-13.4-38.2-3.8S462.8,587.2,476.2,600.6z"/>
</svg>
