<?xml version="1.0" encoding="utf-8"?>
<!-- Generator: Adobe Illustrator 17.1.0, SVG Export Plug-In . SVG Version: 6.00 Build 0)  -->
<!DOCTYPE svg PUBLIC "-//W3C//DTD SVG 1.1//EN" "http://www.w3.org/Graphics/SVG/1.1/DTD/svg11.dtd">
<svg version="1.1" id="Layer_1" xmlns="http://www.w3.org/2000/svg" xmlns:xlink="http://www.w3.org/1999/xlink" x="0px" y="0px"
	 viewBox="0 0 600 800" enable-background="new 0 0 600 800" xml:space="preserve">
<rect fill="#0D3251" width="600" height="800"/>
<polyline fill="#052A49" points="395.886,-0.004 489.752,64.33 294,175 239.033,0.004 "/>
<polyline fill="#0A3A5E" points="0,0 0,51 294,175 239.033,0.004 "/>
<polyline fill="#0F4468" points="600,0 600,175 373.398,0 "/>
<polygon fill="#00213C" points="600,175 600,311 508,800 341,800 294,175 "/>
<polygon fill="#012645" points="600,311 600,800 508,800 "/>
<polygon fill="#002545" points="294,175 341,800 26,800 "/>
<polygon fill="#012340" points="294,175 0,51 0,256 "/>
<polygon fill="#0D3251" points="294,175 34,800 0,800 0,256 "/>
<polygon fill="#0C3151" points="586.266,384 319.283,511.204 341,800 508,800 "/>
<polygon fill="#03304C" points="600,175 294,175 600,311 "/>
<polyline fill="#0C3151" points="373.398,0 294,175 600,0 "/>
<polygon fill="#044268" points="600,175 600,0 294,175 "/>
<polygon fill="#0D4570" points="119,766 0,800 600,801 601,731 "/>
<polygon fill="#0D4570" points="319.852,510.909 0.452,668.413 -0.163,443.544 "/>
<rect opacity="0.74" fill="#0C3151" width="600" height="800"/>
</svg>
