<svg xmlns="http://www.w3.org/2000/svg" viewBox="0 0 600 800" enable-background="new 0 0 600 800"><path fill="#0D3251" d="M0 0h600v800H0z"/><path fill="#052A49" d="M395.886-.004l93.866 64.334L294 175 239.033.004"/><path fill="#0A3A5E" d="M0 0v51l294 124L239.033.004"/><path fill="#0F4468" d="M600 0v175L373.398 0"/><path fill="#00213C" d="M600 175v136l-92 489H341l-47-625z"/><path fill="#012645" d="M600 311v489h-92z"/><path fill="#002545" d="M294 175l47 625H26z"/><path fill="#012340" d="M294 175L0 51v205z"/><path fill="#0D3251" d="M294 175L34 800H0V256z"/><path fill="#0C3151" d="M586.266 384L319.283 511.204 341 800h167z"/><path fill="#03304C" d="M600 175H294l306 136z"/><path fill="#0C3151" d="M373.398 0L294 175 600 0"/><path fill="#044268" d="M600 175V0L294 175z"/><path fill="#0D4570" d="M119 766L0 800l600 1 1-70zM319.852 510.91L.452 668.412l-.615-224.87z"/><path opacity=".74" fill="#0C3151" d="M0 0h600v800H0z"/></svg>