<svg xmlns="http://www.w3.org/2000/svg" width="612" height="792" viewBox="0 0 612 792"><path fill="#254969" d="M581.4 371.1h-30.6c-17.2 0-30.6 11.5-30.6 24.9 0 13.4 13.4 24.9 30.6 24.9h30.6c17.2 0 30.6-11.5 30.6-24.9 0-13.4-13.4-24.9-30.6-24.9zM306 227.7c-93.7 0-168.3 74.6-168.3 168.3S212.3 564.3 306 564.3 474.3 489.7 474.3 396 399.7 227.7 306 227.7zM91.8 396c0-13.4-13.4-24.9-30.6-24.9H30.6C13.4 371.1 0 382.6 0 396c0 13.4 13.4 24.9 30.6 24.9h30.6c17.2 0 30.6-11.5 30.6-24.9zM306 181.8c13.4 0 24.9-13.4 24.9-30.6v-30.6c0-17.2-11.5-30.6-24.9-30.6s-24.9 13.4-24.9 30.6v30.6c0 17.2 11.5 30.6 24.9 30.6zm0 428.4c-13.4 0-24.9 13.4-24.9 30.6v30.6c0 17.2 11.5 30.6 24.9 30.6 13.4 0 24.9-13.4 24.9-30.6v-30.6c0-17.2-11.5-30.6-24.9-30.6zm225.7-405.4c11.5-11.5 13.4-28.7 3.8-38.2s-26.8-7.7-38.2 3.8l-21 21c-11.5 11.5-13.4 28.7-3.8 38.2s26.8 7.7 38.2-3.8c1.8-1.9 17.2-17.2 21-21zM101.4 566.2l-21 21c-11.5 11.5-13.4 28.7-3.8 38.2s26.8 7.6 38.3-3.8l21-21c11.5-11.5 13.4-28.7 3.8-38.2s-24.9-9.6-38.3 3.8zm13.4-395.9c-11.5-11.5-28.7-13.4-38.2-3.8s-7.7 26.8 3.8 38.2l21 21c11.5 11.5 28.7 13.4 38.2 3.8s7.7-26.8-3.8-38.2c-1.9-1.9-17.2-17.1-21-21zm361.4 430.3l21 21c11.5 11.5 28.7 13.4 38.2 3.8s7.6-26.8-3.8-38.2l-21-21c-11.5-11.5-28.7-13.4-38.2-3.8s-9.6 24.8 3.8 38.2z"/></svg>