<svg xmlns="http://www.w3.org/2000/svg" viewBox="0 0 32 32" enable-background="new 0 0 32 32"><path fill="#00A2E0" d="M30.4 14.7h-1.6c-.9 0-1.6.6-1.6 1.3 0 .7.7 1.3 1.6 1.3h1.6c.9 0 1.6-.6 1.6-1.3s-.7-1.3-1.6-1.3zM16 7.2c-4.9 0-8.8 3.9-8.8 8.8s3.9 8.8 8.8 8.8 8.8-3.9 8.8-8.8-3.9-8.8-8.8-8.8zm0 15.2c-3.5 0-6.4-2.9-6.4-6.4 0-3.5 2.9-6.4 6.4-6.4s6.4 2.9 6.4 6.4c0 3.5-2.9 6.4-6.4 6.4zM4.8 16c0-.7-.7-1.3-1.6-1.3H1.6c-.9 0-1.6.6-1.6 1.3 0 .7.7 1.3 1.6 1.3h1.6c.9 0 1.6-.6 1.6-1.3zM16 4.8c.7 0 1.3-.7 1.3-1.6V1.6C17.3.7 16.7 0 16 0s-1.3.7-1.3 1.6v1.6c0 .9.6 1.6 1.3 1.6zm0 22.4c-.7 0-1.3.7-1.3 1.6v1.6c0 .9.6 1.6 1.3 1.6.7 0 1.3-.7 1.3-1.6v-1.6c0-.9-.6-1.6-1.3-1.6zM27.8 6c.6-.6.7-1.5.2-2s-1.4-.4-2 .2l-1.1 1.1c-.6.6-.7 1.5-.2 2s1.4.4 2-.2L27.8 6zM5.3 24.9L4.2 26c-.6.6-.7 1.5-.2 2s1.4.4 2-.2l1.1-1.1c.6-.6.7-1.5.2-2s-1.3-.5-2 .2zM6 4.2c-.6-.6-1.5-.7-2-.2s-.4 1.4.2 2l1.1 1.1c.6.6 1.5.7 2 .2s.4-1.4-.2-2L6 4.2zm18.9 22.5l1.1 1.1c.6.6 1.5.7 2 .2s.4-1.4-.2-2l-1.1-1.1c-.6-.6-1.5-.7-2-.2s-.5 1.3.2 2z"/></svg>